<svg width="159" height="31" viewBox="0 0 159 31" fill="none" xmlns="http://www.w3.org/2000/svg">
<path d="M61.6339 25.1208C59.774 25.1208 58.1774 24.726 56.8439 23.9364C55.5104 23.1293 54.484 22.0151 53.7646 20.5939C53.0452 19.1552 52.6855 17.4971 52.6855 15.6197C52.6855 13.7423 53.0452 12.0842 53.7646 10.6455C54.484 9.20672 55.5104 8.08379 56.8439 7.27668C58.1774 6.46957 59.774 6.06602 61.6339 6.06602C63.8447 6.06602 65.6519 6.61871 67.0556 7.7241C68.4768 8.81194 69.3628 10.3472 69.7137 12.3299H66.0028C65.7747 11.3298 65.2834 10.549 64.529 9.9875C63.792 9.40849 62.8095 9.11899 61.5813 9.11899C59.8793 9.11899 58.5458 9.698 57.5808 10.856C56.6158 12.014 56.1333 13.6019 56.1333 15.6197C56.1333 17.6375 56.6158 19.2254 57.5808 20.3834C58.5458 21.5239 59.8793 22.0941 61.5813 22.0941C62.8095 22.0941 63.792 21.8309 64.529 21.3045C65.2834 20.7606 65.7747 20.0149 66.0028 19.0675H69.7137C69.3628 20.9624 68.4768 22.445 67.0556 23.5153C65.6519 24.5856 63.8447 25.1208 61.6339 25.1208Z" fill="white"/>
<path d="M78.8807 25.1208C77.6174 25.1208 76.4769 24.8312 75.4592 24.2522C74.4591 23.6732 73.6608 22.8749 73.0642 21.8572C72.4852 20.822 72.1957 19.6289 72.1957 18.2779C72.1957 16.9269 72.494 15.7425 73.0906 14.7249C73.6871 13.6897 74.4854 12.8826 75.4856 12.3035C76.5032 11.7245 77.6437 11.435 78.907 11.435C80.1527 11.435 81.2757 11.7245 82.2758 12.3035C83.2934 12.8826 84.0918 13.6897 84.6708 14.7249C85.2673 15.7425 85.5656 16.9269 85.5656 18.2779C85.5656 19.6289 85.2673 20.822 84.6708 21.8572C84.0918 22.8749 83.2934 23.6732 82.2758 24.2522C81.2581 24.8312 80.1264 25.1208 78.8807 25.1208ZM78.8807 22.1994C79.758 22.1994 80.5212 21.8748 81.1704 21.2256C81.8196 20.5588 82.1442 19.5763 82.1442 18.2779C82.1442 16.9795 81.8196 16.0057 81.1704 15.3565C80.5212 14.6898 79.7667 14.3564 78.907 14.3564C78.0122 14.3564 77.2401 14.6898 76.5909 15.3565C75.9593 16.0057 75.6435 16.9795 75.6435 18.2779C75.6435 19.5763 75.9593 20.5588 76.5909 21.2256C77.2401 21.8748 78.0034 22.1994 78.8807 22.1994Z" fill="white"/>
<path d="M94.5783 25.1208C93.3501 25.1208 92.2535 24.8225 91.2885 24.2259C90.3235 23.6294 89.5602 22.8135 88.9988 21.7783C88.4373 20.7431 88.1566 19.5675 88.1566 18.2516C88.1566 16.9356 88.4373 15.7688 88.9988 14.7512C89.5602 13.716 90.3235 12.9089 91.2885 12.3299C92.2535 11.7333 93.3501 11.435 94.5783 11.435C95.5609 11.435 96.4206 11.6193 97.1576 11.9877C97.8945 12.3562 98.491 12.8738 98.9472 13.5405V5.85547H102.316V24.8049H99.3157L98.9472 22.9363C98.5261 23.5153 97.9647 24.0241 97.2628 24.4628C96.5786 24.9014 95.6837 25.1208 94.5783 25.1208ZM95.2889 22.1731C96.3768 22.1731 97.2628 21.8134 97.9471 21.094C98.649 20.3571 98.9999 19.4184 98.9999 18.2779C98.9999 17.1374 98.649 16.2075 97.9471 15.4881C97.2628 14.7512 96.3768 14.3827 95.2889 14.3827C94.2186 14.3827 93.3326 14.7424 92.6307 15.4618C91.9289 16.1812 91.578 17.1111 91.578 18.2516C91.578 19.3921 91.9289 20.3308 92.6307 21.0677C93.3326 21.8046 94.2186 22.1731 95.2889 22.1731Z" fill="white"/>
<path d="M112.089 25.1208C110.773 25.1208 109.607 24.84 108.589 24.2786C107.571 23.7171 106.773 22.9275 106.194 21.9099C105.615 20.8922 105.325 19.7166 105.325 18.3832C105.325 17.0321 105.606 15.8303 106.168 14.7775C106.747 13.7248 107.536 12.9089 108.536 12.3299C109.554 11.7333 110.747 11.435 112.116 11.435C113.396 11.435 114.528 11.7158 115.511 12.2772C116.493 12.8387 117.257 13.6107 117.8 14.5933C118.362 15.5583 118.643 16.6374 118.643 17.8305C118.643 18.0235 118.634 18.2253 118.616 18.4358C118.616 18.6464 118.608 18.8657 118.59 19.0938H108.668C108.738 20.1114 109.089 20.9098 109.721 21.4888C110.37 22.0678 111.151 22.3573 112.063 22.3573C112.747 22.3573 113.318 22.2082 113.774 21.9099C114.247 21.594 114.598 21.1905 114.826 20.6992H118.248C118.002 21.5239 117.59 22.2783 117.011 22.9626C116.449 23.6294 115.748 24.1557 114.905 24.5417C114.081 24.9277 113.142 25.1208 112.089 25.1208ZM112.116 14.1722C111.291 14.1722 110.563 14.409 109.931 14.8828C109.3 15.339 108.896 16.0408 108.721 16.9883H115.221C115.169 16.1285 114.853 15.4442 114.274 14.9354C113.695 14.4266 112.975 14.1722 112.116 14.1722Z" fill="white"/>
<path d="M121.476 24.8049V5.85547H124.845V24.8049H121.476Z" fill="white"/>
<path d="M130.103 9.72432C129.489 9.72432 128.98 9.54009 128.577 9.17162C128.191 8.80316 127.998 8.3382 127.998 7.77673C127.998 7.21527 128.191 6.75908 128.577 6.40816C128.98 6.0397 129.489 5.85547 130.103 5.85547C130.717 5.85547 131.217 6.0397 131.603 6.40816C132.007 6.75908 132.209 7.21527 132.209 7.77673C132.209 8.3382 132.007 8.80316 131.603 9.17162C131.217 9.54009 130.717 9.72432 130.103 9.72432ZM128.419 24.8049V11.7509H131.787V24.8049H128.419Z" fill="white"/>
<path d="M135.909 24.8049V14.567H134.119V11.7509H135.909V10.2244C135.909 8.64525 136.304 7.52232 137.093 6.85558C137.9 6.18884 138.988 5.85547 140.357 5.85547H141.804V8.72421H140.883C140.304 8.72421 139.892 8.83825 139.646 9.06635C139.401 9.29444 139.278 9.68045 139.278 10.2244V11.7509H142.094V14.567H139.278V24.8049H135.909Z" fill="white"/>
<path d="M146.394 30.595L149.42 23.9364H148.631L143.551 11.7509H147.21L150.868 20.9361L154.684 11.7509H158.263L149.973 30.595H146.394Z" fill="white"/>
<path d="M18.1262 30.71C17.8854 30.71 17.6325 30.6862 17.3797 30.6147C15.7301 30.2098 14.7187 28.5544 15.1281 26.9227L21.2929 2.53195C21.7143 0.900337 23.388 -0.0881541 25.0376 0.304861C26.6872 0.721694 27.6866 2.37713 27.2772 4.00874L21.1123 28.3995C20.7631 29.781 19.5109 30.71 18.1262 30.71Z" fill="white"/>
<path d="M32.6273 24.6115C31.8327 24.6115 31.05 24.3137 30.448 23.7182C29.2439 22.5273 29.2439 20.5979 30.448 19.407L34.4335 15.4649L30.448 11.5228C29.2439 10.3319 29.2439 8.40253 30.448 7.21158C31.652 6.02062 33.6026 6.02062 34.8067 7.21158L40.9716 13.3093C42.1756 14.5002 42.1756 16.4296 40.9716 17.6205L34.8067 23.7182C34.2047 24.3137 33.422 24.6115 32.6273 24.6115Z" fill="white"/>
<path d="M9.77658 24.6115C8.98189 24.6115 8.19924 24.3137 7.59721 23.7182L1.43235 17.6205C0.228279 16.4296 0.228279 14.5002 1.43235 13.3093L7.59721 7.21158C8.80128 6.02062 10.7519 6.02062 11.9559 7.21158C13.16 8.40253 13.16 10.3319 11.9559 11.5228L7.97047 15.4649L11.9559 19.407C13.16 20.5979 13.16 22.5273 11.9559 23.7182C11.3539 24.3137 10.5713 24.6115 9.77658 24.6115Z" fill="white"/>
</svg>
