<svg width="147" height="29" viewBox="0 0 147 29" fill="none" xmlns="http://www.w3.org/2000/svg">
<path d="M37.6392 22.5043V4.25386H41.6021L47.4162 15.8298L53.152 4.25386H57.115V22.5043H53.7778V9.9115L48.6937 19.8971H46.0604L40.9764 9.9115V22.5043H37.6392Z" fill="white"/>
<path d="M65.036 22.8172C63.9236 22.8172 63.0111 22.6433 62.2984 22.2957C61.5858 21.9307 61.0557 21.4527 60.708 20.8618C60.3604 20.2708 60.1866 19.619 60.1866 18.9064C60.1866 17.707 60.6559 16.7337 61.5945 15.9863C62.5331 15.2389 63.941 14.8652 65.8181 14.8652H69.1032V14.5523C69.1032 13.6659 68.8512 13.0141 68.3471 12.5969C67.8431 12.1798 67.2173 11.9712 66.4699 11.9712C65.7921 11.9712 65.2011 12.1363 64.697 12.4666C64.193 12.7794 63.8801 13.2487 63.7585 13.8744H60.4995C60.5864 12.9359 60.8992 12.1189 61.438 11.4237C61.9942 10.7284 62.7069 10.1983 63.576 9.83328C64.445 9.45089 65.4184 9.25969 66.496 9.25969C68.3384 9.25969 69.7898 9.7203 70.8501 10.6415C71.9103 11.5627 72.4404 12.8663 72.4404 14.5523V22.5043H69.5986L69.2857 20.4185C68.9033 21.1138 68.3645 21.6874 67.6693 22.1393C66.9914 22.5912 66.1136 22.8172 65.036 22.8172ZM65.7921 20.21C66.7481 20.21 67.4868 19.8971 68.0082 19.2714C68.547 18.6456 68.886 17.8722 69.025 16.9509H66.1832C65.2967 16.9509 64.6623 17.1161 64.2799 17.4463C63.8975 17.7592 63.7063 18.1503 63.7063 18.6196C63.7063 19.1236 63.8975 19.5147 64.2799 19.7928C64.6623 20.0709 65.1663 20.21 65.7921 20.21Z" fill="white"/>
<path d="M75.6251 22.5043V9.57256H78.5973L78.9102 11.9973C79.3795 11.163 80.0139 10.5025 80.8134 10.0158C81.6304 9.51172 82.5863 9.25969 83.6814 9.25969V12.7794H82.7428C82.0128 12.7794 81.361 12.8924 80.7874 13.1184C80.2138 13.3443 79.7619 13.7354 79.4316 14.2916C79.1188 14.8478 78.9623 15.6213 78.9623 16.612V22.5043H75.6251Z" fill="white"/>
<path d="M85.9623 22.5043V3.73242H89.2995V14.813L93.8882 9.57256H97.8511L92.5585 15.4648L98.7115 22.5043H94.54L89.2995 16.0124V22.5043H85.9623Z" fill="white"/>
<path d="M105.995 22.8172C104.691 22.8172 103.535 22.5391 102.527 21.9829C101.519 21.4266 100.728 20.6445 100.154 19.6364C99.5808 18.6282 99.294 17.4637 99.294 16.1427C99.294 14.8043 99.5721 13.6137 100.128 12.5708C100.702 11.528 101.484 10.7197 102.475 10.1461C103.483 9.55518 104.665 9.25969 106.021 9.25969C107.289 9.25969 108.411 9.5378 109.384 10.094C110.357 10.6502 111.113 11.415 111.652 12.3883C112.208 13.3443 112.486 14.4133 112.486 15.5952C112.486 15.7864 112.478 15.9863 112.46 16.1949C112.46 16.4034 112.452 16.6207 112.434 16.8467H102.605C102.675 17.8548 103.022 18.6456 103.648 19.2192C104.291 19.7928 105.065 20.0796 105.968 20.0796C106.646 20.0796 107.211 19.9319 107.663 19.6364C108.132 19.3235 108.48 18.9237 108.706 18.4371H112.095C111.852 19.254 111.444 20.0014 110.87 20.6793C110.314 21.3397 109.619 21.8612 108.784 22.2436C107.967 22.626 107.037 22.8172 105.995 22.8172ZM106.021 11.9712C105.204 11.9712 104.482 12.2058 103.857 12.6751C103.231 13.127 102.831 13.8223 102.657 14.7609H109.097C109.045 13.9092 108.732 13.2313 108.159 12.7273C107.585 12.2232 106.872 11.9712 106.021 11.9712Z" fill="white"/>
<path d="M120.826 22.5043C119.47 22.5043 118.384 22.174 117.567 21.5136C116.75 20.8531 116.342 19.6798 116.342 17.9938V12.3623H114.126V9.57256H116.342L116.733 6.10498H119.679V9.57256H123.173V12.3623H119.679V18.0199C119.679 18.6456 119.809 19.0802 120.07 19.3235C120.348 19.5495 120.817 19.6624 121.478 19.6624H123.094V22.5043H120.826Z" fill="white"/>
<path d="M126.038 22.5043V3.73242H129.375V22.5043H126.038Z" fill="white"/>
<path d="M134.401 28.2401L137.4 21.6439H136.618L131.586 9.57256H135.21L138.834 18.6717L142.614 9.57256H146.16L137.947 28.2401H134.401Z" fill="white"/>
<rect x="0.186035" y="16.6133" width="6.66895" height="10.3671" rx="3.33448" fill="white"/>
<rect x="0.186035" y="0.746094" width="6.66895" height="6.66895" rx="3.33448" fill="white"/>
<rect x="9.88916" y="8.46289" width="6.66895" height="18.5176" rx="3.33448" fill="white"/>
<rect x="19.5923" y="0.746094" width="6.66895" height="26.2351" rx="3.33448" fill="white"/>
</svg>
