<svg width="132" height="33" viewBox="0 0 132 33" fill="none" xmlns="http://www.w3.org/2000/svg">
<path d="M48.0358 25.4681C46.7404 25.4681 45.5963 25.2493 44.6037 24.8119C43.6111 24.3577 42.8288 23.7184 42.2568 22.894C41.6848 22.0528 41.3904 21.035 41.3735 19.8405H44.7804C44.814 20.6648 45.1084 21.363 45.6636 21.935C46.2357 22.4902 47.018 22.7678 48.0106 22.7678C48.8686 22.7678 49.55 22.5659 50.0547 22.1622C50.5594 21.7416 50.8118 21.1864 50.8118 20.4966C50.8118 19.7732 50.5846 19.2096 50.1304 18.8058C49.693 18.402 49.1041 18.0739 48.3639 17.8216C47.6236 17.5692 46.8329 17.3 45.9917 17.014C44.629 16.543 43.5859 15.9373 42.8625 15.197C42.1558 14.4568 41.8025 13.4726 41.8025 12.2444C41.7857 11.2014 42.0297 10.3097 42.5344 9.56944C43.0559 8.81236 43.7625 8.23194 44.6542 7.82816C45.5459 7.40756 46.5721 7.19727 47.733 7.19727C48.9107 7.19727 49.9453 7.40756 50.837 7.82816C51.7455 8.24876 52.4521 8.8376 52.9568 9.59468C53.4784 10.3518 53.756 11.2518 53.7896 12.2949H50.3323C50.3155 11.6724 50.0715 11.1257 49.6004 10.6546C49.1462 10.1667 48.5069 9.92274 47.6825 9.92274C46.9759 9.90592 46.3787 10.0826 45.8908 10.4527C45.4197 10.806 45.1842 11.3275 45.1842 12.0173C45.1842 12.6062 45.3692 13.0772 45.7393 13.4305C46.1095 13.767 46.6142 14.053 47.2535 14.2886C47.8928 14.5241 48.6247 14.7764 49.449 15.0456C50.3239 15.3485 51.123 15.7018 51.8464 16.1055C52.5699 16.5093 53.1503 17.0477 53.5877 17.7206C54.0251 18.3768 54.2438 19.2264 54.2438 20.2695C54.2438 21.1948 54.0083 22.0528 53.5372 22.8435C53.0662 23.6342 52.368 24.2736 51.4427 24.7614C50.5173 25.2325 49.3817 25.4681 48.0358 25.4681Z" fill="white"/>
<path d="M62.5636 25.1652C61.2513 25.1652 60.1998 24.8456 59.4091 24.2063C58.6184 23.567 58.223 22.4313 58.223 20.7994V15.3485H56.078V12.6482H58.223L58.6016 9.29185H61.4532V12.6482H64.8348V15.3485H61.4532V20.8247C61.4532 21.4303 61.5794 21.8509 61.8318 22.0864C62.101 22.3052 62.5552 22.4145 63.1945 22.4145H64.7591V25.1652H62.5636Z" fill="white"/>
<path d="M71.9236 25.4681C70.8468 25.4681 69.9636 25.2998 69.2738 24.9633C68.584 24.61 68.0709 24.1474 67.7344 23.5754C67.3979 23.0034 67.2297 22.3725 67.2297 21.6827C67.2297 20.5218 67.6839 19.5797 68.5924 18.8563C69.5009 18.1328 70.8637 17.7711 72.6806 17.7711H75.8604V17.4683C75.8604 16.6103 75.6164 15.9794 75.1285 15.5756C74.6406 15.1718 74.035 14.9699 73.3115 14.9699C72.6554 14.9699 72.0834 15.1297 71.5955 15.4494C71.1076 15.7522 70.8048 16.2065 70.687 16.8121H67.5325C67.6166 15.9037 67.9195 15.1129 68.441 14.44C68.9794 13.767 69.6692 13.2539 70.5104 12.9006C71.3516 12.5305 72.2937 12.3454 73.3368 12.3454C75.1201 12.3454 76.5249 12.7912 77.5512 13.6829C78.5774 14.5746 79.0906 15.8364 79.0906 17.4683V25.1652H76.3398L76.037 23.1464C75.6669 23.8193 75.1453 24.3745 74.4724 24.8119C73.8163 25.2493 72.9667 25.4681 71.9236 25.4681ZM72.6554 22.9445C73.5807 22.9445 74.2957 22.6416 74.8005 22.036C75.322 21.4303 75.6501 20.6816 75.7847 19.79H73.0339C72.1759 19.79 71.5619 19.9498 71.1917 20.2695C70.8216 20.5723 70.6365 20.9508 70.6365 21.4051C70.6365 21.893 70.8216 22.2715 71.1917 22.5407C71.5619 22.8099 72.0497 22.9445 72.6554 22.9445Z" fill="white"/>
<path d="M82.1731 25.1652V12.6482H85.05L85.3528 14.9952C85.8071 14.1876 86.4211 13.5483 87.195 13.0772C87.9858 12.5893 88.9111 12.3454 89.971 12.3454V15.7522H89.0625C88.3559 15.7522 87.725 15.8616 87.1698 16.0803C86.6146 16.299 86.1772 16.6776 85.8575 17.2159C85.5547 17.7543 85.4033 18.5029 85.4033 19.4619V25.1652H82.1731Z" fill="white"/>
<path d="M97.7559 25.1652C96.4436 25.1652 95.3921 24.8456 94.6014 24.2063C93.8106 23.567 93.4153 22.4313 93.4153 20.7994V15.3485H91.2702V12.6482H93.4153L93.7938 9.29185H96.6455V12.6482H100.027V15.3485H96.6455V20.8247C96.6455 21.4303 96.7717 21.8509 97.024 22.0864C97.2932 22.3052 97.7474 22.4145 98.3868 22.4145H99.9514V25.1652H97.7559Z" fill="white"/>
<path d="M107.494 25.4681C105.93 25.4681 104.718 24.9802 103.86 24.0044C103.019 23.0286 102.599 21.5986 102.599 19.7143V12.6482H105.804V19.4114C105.804 20.4882 106.022 21.3125 106.46 21.8846C106.897 22.4566 107.587 22.7426 108.529 22.7426C109.421 22.7426 110.153 22.4229 110.725 21.7836C111.313 21.1443 111.608 20.2526 111.608 19.1086V12.6482H114.838V25.1652H111.986L111.734 23.0454C111.347 23.7857 110.783 24.3745 110.043 24.8119C109.32 25.2493 108.47 25.4681 107.494 25.4681Z" fill="white"/>
<path d="M118.154 30.7171V12.6482H121.031L121.384 14.44C121.788 13.8848 122.318 13.3969 122.974 12.9763C123.647 12.5557 124.513 12.3454 125.573 12.3454C126.751 12.3454 127.802 12.6314 128.728 13.2034C129.653 13.7754 130.385 14.5577 130.923 15.5503C131.462 16.543 131.731 17.6702 131.731 18.932C131.731 20.1938 131.462 21.321 130.923 22.3136C130.385 23.2894 129.653 24.0633 128.728 24.6353C127.802 25.1905 126.751 25.4681 125.573 25.4681C124.631 25.4681 123.807 25.2914 123.1 24.9381C122.394 24.5848 121.822 24.0885 121.384 23.4492V30.7171H118.154ZM124.892 22.6416C125.918 22.6416 126.768 22.2967 127.441 21.607C128.114 20.9172 128.45 20.0255 128.45 18.932C128.45 17.8384 128.114 16.9383 127.441 16.2317C126.768 15.5251 125.918 15.1718 124.892 15.1718C123.849 15.1718 122.991 15.5251 122.318 16.2317C121.662 16.9215 121.334 17.8132 121.334 18.9067C121.334 20.0003 121.662 20.9004 122.318 21.607C122.991 22.2967 123.849 22.6416 124.892 22.6416Z" fill="white"/>
<path d="M0.334473 13.8443C0.334473 6.25979 6.48293 0.111328 14.0674 0.111328V19.0817C14.0674 26.6662 7.91897 32.8147 0.334473 32.8147V13.8443Z" fill="white"/>
<path d="M16.061 7.5737C16.061 3.45234 19.4021 0.111328 23.5234 0.111328C27.6448 0.111328 30.9858 3.45234 30.9858 7.5737V8.00455C30.9858 12.1259 27.6448 15.4669 23.5234 15.4669C19.4021 15.4669 16.061 12.1259 16.061 8.00455V7.5737Z" fill="white"/>
<path d="M16.061 24.9233C16.061 20.802 19.4021 17.4609 23.5234 17.4609C27.6448 17.4609 30.9858 20.802 30.9858 24.9233V25.3542C30.9858 29.4755 27.6448 32.8165 23.5234 32.8165C19.4021 32.8165 16.061 29.4755 16.061 25.3542V24.9233Z" fill="white"/>
</svg>
