<svg width="20" height="21" viewBox="0 0 20 21" fill="none" xmlns="http://www.w3.org/2000/svg">
<path d="M9.28125 1.29688C9.53906 1.06771 9.78255 1.06771 10.0117 1.29688L19.0781 10.4062C19.3359 10.6354 19.3359 10.8646 19.0781 11.0938L10.0117 20.2031C9.78255 20.4323 9.53906 20.4323 9.28125 20.2031L8.98047 19.8594C8.7513 19.6302 8.7513 19.3867 8.98047 19.1289L16.6719 11.4805H0.515625C0.171875 11.4805 0 11.3086 0 10.9648V10.5352C0 10.1914 0.171875 10.0195 0.515625 10.0195H16.6719L8.98047 2.37109C8.7513 2.11328 8.7513 1.86979 8.98047 1.64062L9.28125 1.29688Z" fill="white"/>
</svg>
