<svg width="32" height="32" viewBox="0 0 32 32" fill="none" xmlns="http://www.w3.org/2000/svg">
<rect y="-0.000488281" width="32" height="32" rx="16" fill="#0A1628"/>
<path d="M15.6094 11.3901C15.75 11.2651 15.8828 11.2651 16.0078 11.3901L20.9062 16.312C21.0469 16.437 21.0469 16.562 20.9062 16.687L16.0078 21.6089C15.8828 21.7339 15.75 21.7339 15.6094 21.6089L15.1406 21.1401C15.0938 21.0933 15.0703 21.0308 15.0703 20.9526C15.0703 20.8745 15.0938 20.8042 15.1406 20.7417L18.7734 17.1089H10.7812C10.5938 17.1089 10.5 17.0151 10.5 16.8276V16.1714C10.5 15.9839 10.5938 15.8901 10.7812 15.8901H18.7734L15.1406 12.2573C15.0156 12.1167 15.0156 11.9839 15.1406 11.8589L15.6094 11.3901Z" fill="white"/>
</svg>
