<svg width="48" height="48" viewBox="0 0 48 48" fill="none" xmlns="http://www.w3.org/2000/svg">
<path d="M6.5963 39.9707C7.29697 37.3557 8.59477 34.939 10.3876 32.9105C12.1805 30.8821 14.4195 29.2972 16.9286 28.2807C19.4377 27.2641 22.1484 26.8435 24.8476 27.052C27.5467 27.2604 30.1607 28.0923 32.4839 29.4821" stroke="#EAFFFF" stroke-width="1.5" stroke-linecap="round"/>
<path d="M33.25 14C33.25 19.1086 29.1086 23.25 24 23.25C18.8914 23.25 14.75 19.1086 14.75 14C14.75 8.89137 18.8914 4.75 24 4.75C29.1086 4.75 33.25 8.89137 33.25 14Z" stroke="#EAFFFF" stroke-width="1.5" stroke-linecap="round" stroke-linejoin="round"/>
<path fill-rule="evenodd" clip-rule="evenodd" d="M40.93 29.298L43.0359 29.5989C43.4568 30.3299 43.7812 31.1123 44.001 31.9267L42.7105 33.6449C42.5293 33.8861 42.4348 34.0581 42.4405 34.3597C42.4466 34.681 42.537 35.1253 42.73 35.3822L44.001 37.0744C43.7822 37.8891 43.4577 38.6717 43.0359 39.4022L40.9216 39.7042C40.6177 39.7476 40.4228 39.8042 40.2076 40.0231C39.9856 40.2491 39.7468 40.6239 39.702 40.9375L39.4022 43.0359C38.6712 43.4568 37.8887 43.7812 37.0744 44.001L35.3695 42.7205C35.1207 42.5336 34.8116 42.4515 34.5005 42.4515C34.1894 42.4515 33.8803 42.5336 33.6316 42.7205L31.9267 44.001C31.112 43.7822 30.3294 43.4577 29.5989 43.0359L29.298 40.9295C29.2538 40.6207 29.105 40.3372 28.8844 40.1166C28.6638 39.896 28.3804 39.7472 28.0715 39.7031L25.9652 39.4022C25.5443 38.6712 25.2198 37.8887 25 37.0744L26.2906 35.3562C26.4718 35.115 26.5663 34.943 26.5605 34.6413C26.5544 34.3201 26.464 33.8758 26.2711 33.6189L25 31.9267C25.2188 31.112 25.5433 30.3294 25.9652 29.5989L28.0715 29.298C28.3804 29.2538 28.6638 29.105 28.8844 28.8844C29.105 28.6638 29.2538 28.3804 29.298 28.0715L29.5989 25.9652C30.3299 25.5443 31.1123 25.2198 31.9267 25L33.6316 26.2806C33.8803 26.4674 34.1894 26.5495 34.5005 26.5495C34.8116 26.5495 35.1207 26.4674 35.3695 26.2806L37.0744 25C37.8891 25.2188 38.6717 25.5433 39.4022 25.9652L39.7031 28.0719C39.7472 28.3801 39.9008 28.6639 40.121 28.8841C40.3416 29.1047 40.6212 29.2539 40.93 29.298ZM34.4999 38.9118C36.9365 38.9118 38.9118 36.9365 38.9118 34.4999C38.9118 32.0633 36.9365 30.0881 34.4999 30.0881C32.0633 30.0881 30.0881 32.0633 30.0881 34.4999C30.0881 36.9365 32.0633 38.9118 34.4999 38.9118Z" fill="#8655FF"/>
</svg>
