<svg width="48" height="48" viewBox="0 0 48 48" fill="none" xmlns="http://www.w3.org/2000/svg">
<path d="M6.5963 39.9707C7.29697 37.3557 8.59477 34.939 10.3876 32.9105C12.1805 30.8821 14.4195 29.2972 16.9286 28.2807C19.4377 27.2641 22.1484 26.8435 24.8476 27.052C27.5467 27.2604 30.1607 28.0923 32.4839 29.4821" stroke="#EAFFFF" stroke-width="1.5" stroke-linecap="round"/>
<path d="M29 32.9923V27.4671C29 27.2674 29.0718 27.0759 29.1997 26.9347C29.3276 26.7935 29.501 26.7141 29.6818 26.7141L36.5 25C36.5 25 38.5778 25.5224 39.9091 25.8571C41.2404 26.1918 43.3182 26.7141 43.3182 26.7141C43.499 26.7141 43.6724 26.7935 43.8003 26.9347C43.9282 27.0759 44 27.2674 44 27.4671V32.9923C44 40.8988 37.9233 43.5154 36.7131 43.9578C36.5756 44.0141 36.4244 44.0141 36.2869 43.9578C35.0767 43.5154 29 40.8988 29 32.9923Z" fill="#8655FF"/>
<path d="M33.25 14C33.25 19.1086 29.1086 23.25 24 23.25C18.8914 23.25 14.75 19.1086 14.75 14C14.75 8.89137 18.8914 4.75 24 4.75C29.1086 4.75 33.25 8.89137 33.25 14Z" stroke="#EAFFFF" stroke-width="1.5" stroke-linecap="round" stroke-linejoin="round"/>
</svg>
