<svg width="30" height="20" viewBox="0 0 30 20" fill="none" xmlns="http://www.w3.org/2000/svg">
<path d="M19.5 2.05811H9.75C7.51562 2.05811 5.60286 2.85368 4.01172 4.44482C2.42057 6.03597 1.625 7.94873 1.625 10.1831C1.625 12.4175 2.42057 14.3302 4.01172 15.9214C5.60286 17.5125 7.51562 18.3081 9.75 18.3081H19.5C21.7344 18.3081 23.6471 17.5125 25.2383 15.9214C26.8294 14.3302 27.625 12.4175 27.625 10.1831C27.625 7.94873 26.8294 6.03597 25.2383 4.44482C23.6471 2.85368 21.7344 2.05811 19.5 2.05811ZM19.5 0.433105C22.2083 0.433105 24.5104 1.38102 26.4062 3.27686C28.3021 5.17269 29.25 7.47477 29.25 10.1831C29.25 12.8914 28.3021 15.1935 26.4062 17.0894C24.5104 18.9852 22.2083 19.9331 19.5 19.9331H9.75C7.04167 19.9331 4.73958 18.9852 2.84375 17.0894C0.947917 15.1935 0 12.8914 0 10.1831C0 7.47477 0.947917 5.17269 2.84375 3.27686C4.73958 1.38102 7.04167 0.433105 9.75 0.433105H19.5ZM19.5 15.8706C17.7734 15.8706 16.3516 15.2274 15.2344 13.9409C14.2865 12.8576 13.8125 11.605 13.8125 10.1831C13.8125 8.62581 14.3711 7.28857 15.4883 6.17139C16.6055 5.0542 17.9427 4.49561 19.5 4.49561C21.0573 4.49561 22.3945 5.0542 23.5117 6.17139C24.6289 7.28857 25.1875 8.62581 25.1875 10.1831C25.1875 11.7404 24.6289 13.0776 23.5117 14.1948C22.3945 15.312 21.0573 15.8706 19.5 15.8706Z" fill="#3AFCFC"/>
</svg>
