<svg width="48" height="48" viewBox="0 0 48 48" fill="none" xmlns="http://www.w3.org/2000/svg">
<path d="M6.5963 39.9707C7.3236 37.2563 8.69388 34.757 10.5912 32.6842C12.4886 30.6113 14.8572 29.0259 17.4968 28.0619C20.1364 27.0979 22.9693 26.7838 25.756 27.146C28.5426 27.5083 31.201 28.5363 33.5064 30.1431" stroke="#EAFFFF" stroke-width="1.5" stroke-linecap="round"/>
<path d="M33.25 14C33.25 19.1086 29.1086 23.25 24 23.25C18.8914 23.25 14.75 19.1086 14.75 14C14.75 8.89137 18.8914 4.75 24 4.75C29.1086 4.75 33.25 8.89137 33.25 14Z" stroke="#EAFFFF" stroke-width="1.5" stroke-linecap="round" stroke-linejoin="round"/>
<path d="M34.3288 34.6751C36.706 34.6751 38.6332 32.748 38.6332 30.3707C38.6332 27.9935 36.706 26.0664 34.3288 26.0664C31.9516 26.0664 30.0245 27.9935 30.0245 30.3707C30.0245 32.748 31.9516 34.6751 34.3288 34.6751Z" fill="#8655FF"/>
<path d="M39.698 44.0047C42.0752 44.0047 44.0023 42.0775 44.0023 39.7003C44.0023 37.3231 42.0752 35.396 39.698 35.396C37.3208 35.396 35.3937 37.3231 35.3937 39.7003C35.3937 42.0775 37.3208 44.0047 39.698 44.0047Z" fill="#8655FF"/>
<path d="M28.945 44.0047C31.3222 44.0047 33.2493 42.0775 33.2493 39.7003C33.2493 37.3231 31.3222 35.396 28.945 35.396C26.5677 35.396 24.6406 37.3231 24.6406 39.7003C24.6406 42.0775 26.5677 44.0047 28.945 44.0047Z" fill="#8655FF"/>
</svg>
