<svg width="17" height="17" viewBox="0 0 17 17" fill="none" xmlns="http://www.w3.org/2000/svg">
<g clip-path="url(#clip0_118_14794)">
<path fill-rule="evenodd" clip-rule="evenodd" d="M0.621094 16.0464H3.9386V5.00732H0.621094V16.0464Z" fill="white"/>
<path fill-rule="evenodd" clip-rule="evenodd" d="M16.1011 9.90094V16.0464H12.8533V10.2424C12.8533 8.7629 12.3295 7.85246 11.1771 7.85246C10.4312 7.84449 9.76073 8.34523 9.50091 9.10431C9.40767 9.39565 9.37205 9.70634 9.39615 10.0147V16.0464H6.14844V5.34876H9.39615V6.82822C10.0058 5.697 11.1237 5.00393 12.3295 5.00734C14.4248 5.00734 16.1011 6.60061 16.1011 9.90094Z" fill="white"/>
<path fill-rule="evenodd" clip-rule="evenodd" d="M2.3267 0.598039C1.47484 0.504329 0.714902 1.17986 0.628674 2.10461C0.623936 2.15198 0.622041 2.19832 0.621094 2.24569C0.622041 3.1591 1.30428 3.89745 2.14382 3.89539C2.17319 3.89539 2.20257 3.89539 2.23194 3.89333C3.0838 3.98601 3.84374 3.31254 3.92997 2.38676C3.93376 2.3394 3.9366 2.29306 3.93755 2.24569C3.96787 1.36419 3.3349 0.624813 2.52474 0.59083C2.45841 0.588771 2.39208 0.59083 2.3267 0.598039Z" fill="white"/>
</g>
<defs>
<clipPath id="clip0_118_14794">
<rect width="17" height="16" fill="white" transform="translate(0 0.433105)"/>
</clipPath>
</defs>
</svg>
