<svg width="32" height="33" viewBox="0 0 32 33" fill="none" xmlns="http://www.w3.org/2000/svg">
<rect y="0.933105" width="32" height="32" rx="16" fill="#8655FF"/>
<path d="M15.6094 12.3237C15.75 12.1987 15.8828 12.1987 16.0078 12.3237L20.9062 17.2456C21.0469 17.3706 21.0469 17.4956 20.9062 17.6206L16.0078 22.5425C15.8828 22.6675 15.75 22.6675 15.6094 22.5425L15.1406 22.0737C15.0938 22.0269 15.0703 21.9644 15.0703 21.8862C15.0703 21.8081 15.0938 21.7378 15.1406 21.6753L18.7734 18.0425H10.7812C10.5938 18.0425 10.5 17.9487 10.5 17.7612V17.105C10.5 16.9175 10.5938 16.8237 10.7812 16.8237H18.7734L15.1406 13.1909C15.0156 13.0503 15.0156 12.9175 15.1406 12.7925L15.6094 12.3237Z" fill="white"/>
</svg>
