<svg width="48" height="48" viewBox="0 0 48 48" fill="none" xmlns="http://www.w3.org/2000/svg">
<path d="M6.5963 39.9707C7.48569 36.6514 9.33263 33.6674 11.9068 31.391C14.4809 29.1145 17.6683 27.6462 21.0714 27.1693C24.4745 26.6924 27.9427 27.228 31.0434 28.7093C34.1441 30.1905 36.7401 32.5519 38.5076 35.4988" stroke="#EAFFFF" stroke-width="1.5" stroke-linecap="round"/>
<path d="M33.25 14C33.25 19.1086 29.1086 23.25 24 23.25C18.8914 23.25 14.75 19.1086 14.75 14C14.75 8.89137 18.8914 4.75 24 4.75C29.1086 4.75 33.25 8.89137 33.25 14Z" stroke="#EAFFFF" stroke-width="1.5" stroke-linecap="round" stroke-linejoin="round"/>
<path d="M40 37.3264C42.3649 36.2029 44 33.7924 44 31C44 27.134 40.866 24 37 24C33.134 24 30 27.134 30 31C30 33.7924 31.6351 36.2029 34 37.3264V38.0455C34 38.5726 34.4274 39 34.9545 39H39.0455C39.5726 39 40 38.5726 40 38.0455V37.3264Z" fill="#8655FF"/>
<path d="M34.375 41.1367H39.625V42.5685C39.625 43.3593 38.984 44.0004 38.1932 44.0004H35.8068C35.016 44.0004 34.375 43.3593 34.375 42.5685V41.1367Z" fill="#8655FF"/>
</svg>
