<svg width="30" height="20" viewBox="0 0 30 20" fill="none" xmlns="http://www.w3.org/2000/svg">
<path d="M16.9102 10.7104C16.2669 11.3537 15.5052 11.6753 14.625 11.6753C13.7448 11.6753 12.9831 11.3537 12.3398 10.7104C11.6966 10.0672 11.375 9.3055 11.375 8.42529C11.375 8.42529 11.375 8.40837 11.375 8.37451C11.375 8.34066 11.375 8.3068 11.375 8.27295C11.6458 8.37451 11.9336 8.42529 12.2383 8.42529C12.8815 8.42529 13.4401 8.18831 13.9141 7.71436C14.388 7.2404 14.625 6.6818 14.625 6.03857C14.625 5.73389 14.5742 5.44613 14.4727 5.17529C14.5065 5.17529 14.5234 5.17529 14.5234 5.17529C14.5573 5.17529 14.5911 5.17529 14.625 5.17529C15.5052 5.17529 16.2669 5.49691 16.9102 6.14014C17.5534 6.78337 17.875 7.54508 17.875 8.42529C17.875 9.3055 17.5534 10.0672 16.9102 10.7104ZM29.0977 9.28857C29.1992 9.52555 29.25 9.77946 29.25 10.0503C29.25 10.3211 29.1992 10.575 29.0977 10.812C27.6758 13.5203 25.6784 15.7039 23.1055 17.3628C20.5326 18.9878 17.7057 19.8003 14.625 19.8003C12.5938 19.8003 10.6302 19.4279 8.73438 18.6831C6.8724 17.9045 5.21354 16.855 3.75781 15.5347C2.30208 14.1805 1.10026 12.6063 0.152344 10.812C0.0507812 10.575 0 10.3211 0 10.0503C0 9.77946 0.0507812 9.52555 0.152344 9.28857C1.57422 6.58024 3.57161 4.41357 6.14453 2.78857C8.71745 1.12972 11.5443 0.300293 14.625 0.300293C17.7057 0.300293 20.5326 1.12972 23.1055 2.78857C25.6784 4.41357 27.6758 6.58024 29.0977 9.28857ZM19.1953 3.85498C17.9427 2.56852 16.4193 1.92529 14.625 1.92529C12.8307 1.92529 11.2904 2.56852 10.0039 3.85498C8.7513 5.10758 8.125 6.63102 8.125 8.42529C8.125 10.2196 8.7513 11.7599 10.0039 13.0464C11.2904 14.299 12.8307 14.9253 14.625 14.9253C16.4193 14.9253 17.9427 14.299 19.1953 13.0464C20.4818 11.7599 21.125 10.2196 21.125 8.42529C21.125 6.63102 20.4818 5.10758 19.1953 3.85498ZM7.00781 15.9917C9.34375 17.4474 11.8828 18.1753 14.625 18.1753C17.3672 18.1753 19.8893 17.4474 22.1914 15.9917C24.5273 14.536 26.3385 12.5555 27.625 10.0503C27.0156 8.83154 26.0677 7.59587 24.7812 6.34326C23.4948 5.0568 22.2422 4.10889 21.0234 3.49951C22.1745 4.95524 22.75 6.59717 22.75 8.42529C22.75 10.6597 21.9544 12.5724 20.3633 14.1636C18.7721 15.7547 16.8594 16.5503 14.625 16.5503C12.3906 16.5503 10.4779 15.7547 8.88672 14.1636C7.29557 12.5724 6.5 10.6597 6.5 8.42529C6.5 6.59717 7.07552 4.95524 8.22656 3.49951C7.00781 4.10889 5.75521 5.0568 4.46875 6.34326C3.18229 7.59587 2.23438 8.83154 1.625 10.0503C2.91146 12.5555 4.70573 14.536 7.00781 15.9917Z" fill="#FB3D5D"/>
</svg>
