<svg width="17" height="15" viewBox="0 0 17 15" fill="none" xmlns="http://www.w3.org/2000/svg">
<path d="M16.989 2.2674C16.3608 2.52923 15.7065 2.7387 15.026 2.81724C15.7327 2.39831 16.2823 1.71755 16.544 0.905874C15.8897 1.29862 15.1569 1.58664 14.3717 1.74374C13.7173 1.06297 12.8275 0.644043 11.8329 0.644043C9.9223 0.644043 8.40427 2.18885 8.40427 4.07404C8.40427 4.33587 8.43044 4.5977 8.48279 4.85953C5.62993 4.72861 3.09114 3.34091 1.41607 1.27244C1.12817 1.76992 0.944953 2.37213 0.944953 3.00053C0.944953 4.20495 1.54694 5.25228 2.46299 5.85449C1.88718 5.82831 1.36372 5.67121 0.91878 5.43556C0.91878 5.46174 0.91878 5.46174 0.91878 5.48793C0.91878 7.16365 2.09657 8.55135 3.66695 8.86555C3.37905 8.9441 3.06497 8.99647 2.75089 8.99647C2.54151 8.99647 2.30595 8.97028 2.09657 8.9441C2.54151 10.3056 3.79781 11.3006 5.31585 11.3267C4.13806 12.2431 2.6462 12.793 1.04965 12.793C0.761742 12.793 0.500012 12.7668 0.238281 12.7406C1.75632 13.6832 3.56226 14.2592 5.49906 14.2592C11.8329 14.2592 15.2877 9.02265 15.2877 4.46678C15.2877 4.30968 15.2877 4.17877 15.2877 4.02167C15.942 3.55037 16.5179 2.94816 16.989 2.2674Z" fill="white"/>
</svg>
