<svg width="28" height="27" viewBox="0 0 28 27" fill="none" xmlns="http://www.w3.org/2000/svg">
<path d="M25.8984 11.8628C27.0495 12.8107 27.625 14.0125 27.625 15.4683C27.625 16.2808 27.4219 17.0425 27.0156 17.7534C26.6094 18.4644 26.0508 19.0399 25.3398 19.48C25.4076 20.6987 25.0013 21.7482 24.1211 22.6284C23.2747 23.5086 22.2422 23.9318 21.0234 23.8979C20.7865 24.3719 20.4648 24.7782 20.0586 25.1167C19.6862 25.4552 19.2461 25.7091 18.7383 25.8784C18.2643 26.0815 17.7734 26.1831 17.2656 26.1831C15.8099 26.1831 14.6589 25.5907 13.8125 24.4058C12.9661 25.5907 11.8151 26.1831 10.3594 26.1831C9.58073 26.1831 8.85286 25.98 8.17578 25.5737C7.4987 25.1675 6.97396 24.6089 6.60156 23.8979C5.38281 23.9318 4.35026 23.5086 3.50391 22.6284C2.65755 21.7482 2.2513 20.6987 2.28516 19.48C1.57422 19.0399 1.01562 18.4644 0.609375 17.7534C0.203125 17.0425 0 16.2808 0 15.4683C0 14.0125 0.575521 12.8107 1.72656 11.8628C1.35417 10.644 1.42188 9.56071 1.92969 8.61279C2.47135 7.66488 3.09766 6.97087 3.80859 6.53076C3.74089 5.54899 4.02865 4.66878 4.67188 3.89014C5.34896 3.07764 6.19531 2.62061 7.21094 2.51904C7.51562 1.80811 7.98958 1.24951 8.63281 0.843262C9.27604 0.403158 9.98698 0.183105 10.7656 0.183105C12.0182 0.183105 13.0339 0.690918 13.8125 1.70654C14.5911 0.690918 15.6068 0.183105 16.8594 0.183105C17.3672 0.183105 17.8581 0.284668 18.332 0.487793C18.806 0.657064 19.2122 0.927897 19.5508 1.30029C19.9232 1.63883 20.2109 2.04508 20.4141 2.51904C21.4297 2.62061 22.2591 3.07764 22.9023 3.89014C23.5794 4.66878 23.8672 5.54899 23.7656 6.53076C24.5104 6.97087 25.1367 7.66488 25.6445 8.61279C26.1862 9.56071 26.2708 10.644 25.8984 11.8628ZM13 21.9175V4.04248C13 3.63623 12.8984 3.26383 12.6953 2.92529C12.4922 2.58675 12.2214 2.31592 11.8828 2.11279C11.5443 1.90967 11.1719 1.80811 10.7656 1.80811C10.3932 1.80811 10.0547 1.87581 9.75 2.01123C9.47917 2.11279 9.25911 2.29899 9.08984 2.56982C8.92057 2.8068 8.78516 3.04378 8.68359 3.28076C8.61589 3.48389 8.53125 3.77165 8.42969 4.14404L7.76953 4.09326C7.1263 4.09326 6.56771 4.31331 6.09375 4.75342C5.65365 5.19352 5.43359 5.71826 5.43359 6.32764C5.43359 6.46305 5.51823 6.85238 5.6875 7.49561C5.14583 7.69873 4.70573 7.91878 4.36719 8.15576C4.02865 8.35889 3.74089 8.66357 3.50391 9.06982C3.26693 9.47607 3.14844 9.96696 3.14844 10.5425C3.14844 10.9826 3.36849 11.6427 3.80859 12.5229C3.33464 12.7938 2.97917 13.0138 2.74219 13.1831C2.50521 13.3524 2.2513 13.6401 1.98047 14.0464C1.74349 14.4526 1.625 14.9266 1.625 15.4683C1.625 16.2808 1.84505 16.9071 2.28516 17.3472C2.72526 17.7873 3.33464 18.1597 4.11328 18.4644C3.97786 19.1076 3.91016 19.5138 3.91016 19.6831C3.91016 20.394 4.16406 21.0034 4.67188 21.5112C5.21354 22.019 5.83984 22.2729 6.55078 22.2729C6.65234 22.2729 7.02474 22.2222 7.66797 22.1206C7.9388 22.8993 8.26042 23.4917 8.63281 23.8979C9.03906 24.3381 9.61458 24.5581 10.3594 24.5581C11.1042 24.5581 11.7305 24.3042 12.2383 23.7964C12.7461 23.2886 13 22.6623 13 21.9175ZM23.5117 18.4644C24.0195 18.2612 24.4258 18.0581 24.7305 17.855C25.069 17.6519 25.3568 17.3472 25.5938 16.9409C25.8646 16.5347 26 16.0438 26 15.4683C26 15.1974 25.9661 14.9435 25.8984 14.7065C25.8646 14.4696 25.7799 14.2664 25.6445 14.0972C25.5091 13.894 25.3906 13.7248 25.2891 13.5894C25.1875 13.4539 25.0352 13.3185 24.832 13.1831C24.6289 13.0138 24.4596 12.8953 24.3242 12.8276C24.2227 12.7599 24.0534 12.6584 23.8164 12.5229C24.2565 11.6089 24.4766 10.9487 24.4766 10.5425C24.4766 9.72998 24.2565 9.10368 23.8164 8.66357C23.3763 8.22347 22.75 7.83415 21.9375 7.49561C22.1068 6.85238 22.1914 6.46305 22.1914 6.32764C22.1914 5.71826 21.9544 5.19352 21.4805 4.75342C21.0404 4.31331 20.4987 4.09326 19.8555 4.09326L19.1953 4.14404C19.026 3.39925 18.7721 2.82373 18.4336 2.41748C18.0951 2.01123 17.5703 1.80811 16.8594 1.80811C16.25 1.80811 15.7253 2.02816 15.2852 2.46826C14.8451 2.90837 14.625 3.43311 14.625 4.04248V21.9175C14.625 22.6623 14.8789 23.2886 15.3867 23.7964C15.8945 24.3042 16.5208 24.5581 17.2656 24.5581C18.0104 24.5581 18.569 24.3381 18.9414 23.8979C19.3477 23.4917 19.6862 22.8993 19.957 22.1206C20.6003 22.2222 20.9727 22.2729 21.0742 22.2729C21.7852 22.2729 22.3945 22.019 22.9023 21.5112C23.444 21.0034 23.7148 20.394 23.7148 19.6831C23.7148 19.5138 23.6471 19.1076 23.5117 18.4644Z" fill="#E359FF"/>
</svg>
