<svg width="118" height="29" viewBox="0 0 118 29" fill="none" xmlns="http://www.w3.org/2000/svg">
<g clip-path="url(#clip0_114_668)">
<path d="M45.8733 14.7193H35.3902V5.83276H32.2484V26.9913H35.3902V17.5002H45.8733V26.9913H49.0166V5.83276H45.8733V14.7193Z" fill="white"/>
<path d="M61.5539 20.0089C61.5539 22.6688 59.8621 24.6033 57.4755 24.6033C55.3305 24.6033 53.9107 22.9711 53.9107 20.553V11.7571H50.9802V21.1273C50.9802 24.7544 53.2158 27.233 56.6598 27.233C58.9256 27.233 60.7382 26.2053 61.551 24.301V26.9912H64.4814V11.7571H61.551L61.5539 20.0089Z" fill="white"/>
<path d="M74.2898 11.5154C72.2053 11.5154 70.3624 12.5129 69.4863 13.994V5.81128H66.5559V26.9914H69.4863V24.7244C70.3624 26.2357 72.2355 27.2332 74.2596 27.2332C78.9422 27.2332 81.5719 23.9083 81.5719 19.3743C81.5719 14.8403 78.9365 11.5154 74.2898 11.5154ZM73.9273 24.6639C71.0875 24.6639 69.2446 22.5481 69.2446 19.3743C69.2446 16.2005 71.0875 14.0847 73.9273 14.0847C76.7369 14.0847 78.6114 16.2005 78.6114 19.3743C78.6114 22.5481 76.7369 24.6639 73.9273 24.6639Z" fill="white"/>
<path d="M90.6221 11.5154C88.5376 11.5154 86.6948 12.5129 85.8187 13.994V5.81128H82.8883V26.9914H85.8187V24.7244C86.6948 26.2357 88.5678 27.2332 90.5919 27.2332C95.2746 27.2332 97.9028 23.9083 97.9028 19.3743C97.9028 14.8403 95.2746 11.5154 90.6221 11.5154ZM90.2596 24.6639C87.4198 24.6639 85.577 22.5481 85.577 19.3743C85.577 16.2005 87.4198 14.0847 90.2596 14.0847C93.0692 14.0847 94.9422 16.2005 94.9422 19.3743C94.9422 22.5481 93.0692 24.6639 90.2596 24.6639Z" fill="white"/>
<path d="M102.131 5.81128H99.2004V26.9914H102.131V5.81128Z" fill="white"/>
<path d="M115.071 22.0341C114.648 23.7613 113.201 24.7243 110.962 24.7243C108.304 24.7243 106.431 22.7596 106.189 19.888H117.82C117.85 19.616 117.881 19.1324 117.881 18.7366C117.881 14.8676 115.373 11.5125 110.66 11.5125C105.978 11.5125 103.323 15.0187 103.323 19.285C103.323 23.5167 106.254 27.2345 110.967 27.2345C114.707 27.2345 117.462 25.1791 118.006 22.0356L115.071 22.0341ZM110.66 13.873C113.168 13.873 114.739 15.4145 114.92 17.742H106.28C106.733 15.2029 108.274 13.873 110.66 13.873Z" fill="white"/>
</g>
<g clip-path="url(#clip1_114_668)">
<path d="M21.5082 3.38638C20.9192 2.91495 20.296 2.48797 19.6437 2.10896C19.3138 1.91738 18.9735 1.74441 18.6244 1.59085C18.2686 1.43326 17.9003 1.30577 17.5232 1.20971C17.3273 1.16144 17.1285 1.12564 16.928 1.10251C16.8774 1.10251 16.8268 1.09358 16.7792 1.08911H16.7018H16.6245C16.5203 1.08911 16.4146 1.08911 16.3075 1.09804C16.199 1.10746 16.0912 1.12337 15.9846 1.14569C15.8741 1.17 15.7656 1.20286 15.6602 1.24395C15.4393 1.32987 15.2372 1.45779 15.065 1.62062C14.8895 1.78344 14.747 1.97856 14.6454 2.19531C14.597 2.30062 14.5572 2.40966 14.5263 2.52137C14.497 2.62951 14.4746 2.73941 14.4593 2.8504C14.4593 2.8906 14.4489 2.92931 14.4445 2.96951C14.3641 2.93229 14.2823 2.89507 14.2004 2.86082C13.7045 2.6446 13.1913 2.4703 12.6662 2.33973C12.398 2.27238 12.1256 2.22265 11.8508 2.19085C11.7809 2.18192 11.7109 2.17894 11.641 2.17298H11.5353H11.3225H11.2154C11.1782 2.17298 11.1425 2.17298 11.1068 2.17298C11.0711 2.17298 11.0353 2.17298 10.9981 2.17298C10.852 2.18533 10.7069 2.20721 10.5636 2.23849C10.4158 2.27197 10.2705 2.31626 10.1291 2.371C9.83695 2.48608 9.56968 2.65643 9.34195 2.87273C9.11491 3.09393 8.93254 3.35678 8.80477 3.64693C8.74373 3.78767 8.69397 3.93304 8.65596 4.08167C8.62355 4.20217 8.59821 4.32446 8.58007 4.44792C8.40349 4.39929 8.22492 4.35462 8.04437 4.31393C7.72109 4.24298 7.39352 4.19324 7.06375 4.16504C6.89709 4.15313 6.72894 4.1442 6.5593 4.14718C6.47448 4.14718 6.38967 4.14718 6.30485 4.14718L6.17539 4.1576H6.1114H6.04741C5.87441 4.17678 5.70289 4.20762 5.53404 4.24991C5.36098 4.29107 5.19173 4.34685 5.0281 4.41665C4.34231 4.69715 3.79007 5.22998 3.485 5.90549C3.40895 6.0694 3.34625 6.23918 3.2975 6.41318C3.24576 6.59221 3.20746 6.77485 3.18292 6.95958L3.17251 7.02509L3.16507 7.0906C3.16507 7.13378 3.15316 7.17695 3.15019 7.22013C3.14275 7.30648 3.13531 7.39283 3.13233 7.47919C3.1234 7.65189 3.13233 7.82311 3.13233 7.99283C3.14728 8.32999 3.18506 8.66575 3.24542 8.9978C3.28262 9.20177 3.32578 9.40425 3.37637 9.60375C3.30643 9.61566 3.23649 9.62757 3.16656 9.64246C3.01868 9.67594 2.87345 9.72023 2.73205 9.77497C2.43987 9.89005 2.1726 10.0604 1.94487 10.2767C1.71817 10.4982 1.53584 10.761 1.40768 11.0509C1.34665 11.1916 1.29689 11.337 1.25888 11.4856C1.21995 11.6325 1.19062 11.7817 1.17108 11.9323C1.17108 11.9695 1.17108 12.0052 1.15918 12.0425C1.14728 12.0797 1.15174 12.1154 1.14876 12.1526L1.14132 12.2613V12.37V12.5874C1.14132 12.6588 1.14132 12.7363 1.15025 12.8018C1.1681 13.0837 1.20439 13.3642 1.25888 13.6415C1.31344 13.9154 1.3804 14.1844 1.45977 14.4484C1.53913 14.7124 1.62494 14.971 1.7172 15.2241C1.75589 15.3253 1.79755 15.4251 1.83773 15.5219C1.7412 15.531 1.6453 15.546 1.55054 15.5665C1.44003 15.5908 1.33157 15.6237 1.22614 15.6648C1.00522 15.7506 0.803064 15.8785 0.630924 16.0415C0.457278 16.2077 0.317322 16.4058 0.218734 16.6251C0.171232 16.7306 0.13193 16.8396 0.101179 16.9511C0.0713997 17.0593 0.0485367 17.1692 0.0327285 17.2802C0.0174673 17.3878 0.00802913 17.4961 0.00445557 17.6047V17.7641C0.00445557 17.8176 0.00445557 17.8712 0.00445557 17.9234C0.0150019 18.1292 0.0393615 18.3342 0.0773698 18.5368C0.114571 18.7377 0.162189 18.9328 0.217246 19.1248C0.272304 19.3169 0.33629 19.5045 0.40474 19.6891C0.543897 20.0546 0.703367 20.4119 0.882403 20.7596C1.24023 21.4432 1.65539 22.0951 2.12343 22.7085C3.05307 23.9284 4.14212 25.018 5.36143 25.9482C5.97443 26.4165 6.62605 26.8318 7.30928 27.1899C7.65614 27.3702 8.01341 27.5298 8.37918 27.6678C8.5637 27.7363 8.7512 27.8003 8.94315 27.8554C9.13511 27.9105 9.33005 27.9581 9.53837 27.9953C9.74087 28.0333 9.94569 28.0577 10.1514 28.0683C10.2035 28.0683 10.2571 28.0683 10.3107 28.0683H10.4699C10.5785 28.0647 10.6867 28.0552 10.7943 28.04C10.9053 28.0245 11.0152 28.0016 11.1231 27.9715C11.2346 27.9407 11.3436 27.9014 11.449 27.8539C11.6682 27.7552 11.8662 27.6152 12.0323 27.4415C12.1952 27.2692 12.3231 27.067 12.4088 26.8459C12.4506 26.7407 12.4834 26.6321 12.507 26.5214C12.5276 26.4266 12.5425 26.3306 12.5517 26.234L12.8493 26.3546C13.1042 26.4539 13.3632 26.5427 13.626 26.6211C13.8909 26.7 14.1588 26.77 14.4326 26.8221C14.7096 26.8766 14.99 26.9129 15.2718 26.9308C15.3418 26.9308 15.4206 26.9308 15.4861 26.9397H15.7048H15.8135H15.9221L16.0322 26.9293L16.1423 26.9174C16.2929 26.8979 16.442 26.8685 16.5887 26.8296C16.7375 26.7922 16.8828 26.7424 17.0233 26.6807C17.3135 26.5532 17.5762 26.3707 17.797 26.1432C18.0135 25.9156 18.1839 25.6481 18.2985 25.3556C18.353 25.2146 18.3973 25.0698 18.4309 24.9224C18.4458 24.8524 18.4592 24.7735 18.4696 24.7109C18.669 24.7616 18.8714 24.8047 19.0753 24.842C19.4072 24.902 19.7427 24.9403 20.0797 24.9566C20.2493 24.9566 20.4205 24.964 20.5931 24.9566C20.6794 24.9566 20.7657 24.9462 20.852 24.9387C20.8951 24.9387 20.9383 24.9298 20.9829 24.9238L21.0469 24.9164L21.1124 24.906C21.2874 24.8811 21.4605 24.8437 21.6302 24.7943C21.8042 24.7456 21.9738 24.6828 22.1377 24.6067C22.8128 24.3015 23.3454 23.749 23.6257 23.0628C23.6955 22.8991 23.7512 22.7298 23.7924 22.5566C23.8346 22.3877 23.8655 22.2161 23.8846 22.043L23.8921 21.9789V21.9149C23.8921 21.8717 23.8995 21.8286 23.901 21.7869C23.901 21.7005 23.9099 21.6157 23.9084 21.5308C23.9084 21.3611 23.9084 21.1928 23.8906 21.0261C23.8623 20.6962 23.8126 20.3684 23.7418 20.0449C23.7011 19.8643 23.6565 19.6856 23.6079 19.509C23.7313 19.491 23.8535 19.4656 23.9739 19.433C24.1225 19.395 24.2678 19.3452 24.4084 19.2841C24.6986 19.1567 24.9614 18.9742 25.1822 18.7467C25.3987 18.5191 25.569 18.2516 25.6837 17.9591C25.7382 17.818 25.7824 17.6733 25.8161 17.5258C25.8473 17.382 25.8692 17.2363 25.8816 17.0896C25.8816 17.0524 25.8816 17.0167 25.8905 16.9809C25.8994 16.9452 25.8905 16.9095 25.8905 16.8737V16.765V16.5328V16.4271C25.8905 16.3571 25.8816 16.2871 25.8727 16.2172C25.8407 15.9423 25.791 15.6697 25.7239 15.4013C25.5934 14.876 25.4192 14.3625 25.203 13.8663C25.1688 13.7844 25.1316 13.704 25.0944 13.6221L25.2135 13.6087C25.3243 13.5922 25.4341 13.5693 25.5423 13.5402C25.654 13.5094 25.763 13.4695 25.8682 13.4211C26.0873 13.323 26.2853 13.1835 26.4515 13.0102C26.6141 12.8377 26.7419 12.6355 26.828 12.4147C26.8689 12.3086 26.9017 12.1996 26.9262 12.0886C26.9485 11.982 26.9644 11.8741 26.9738 11.7655C26.9738 11.6583 26.9857 11.5526 26.9827 11.4484V11.371V11.2936C26.9827 11.2415 26.9753 11.1908 26.9694 11.1447C26.947 10.944 26.9112 10.7451 26.8622 10.5492C26.7662 10.1719 26.6388 9.80338 26.4813 9.44742C26.3278 9.09808 26.1549 8.7576 25.9634 8.42757C25.5846 7.77495 25.1579 7.1514 24.6867 6.56206C23.7496 5.38761 22.6834 4.32235 21.5082 3.38638V3.38638ZM23.9114 12.5353C23.6705 12.4591 23.4341 12.3697 23.2031 12.2673C22.883 12.1261 22.571 11.967 22.2686 11.7908C21.6556 11.4329 21.0697 11.0303 20.5157 10.5864C19.9563 10.1401 19.4228 9.66242 18.9175 9.15561C18.4115 8.64997 17.9351 8.11558 17.4905 7.55512C17.0463 7.00086 16.6434 6.41466 16.2852 5.80127C16.1094 5.49911 15.9504 5.18747 15.809 4.86777C15.7072 4.63648 15.6178 4.39992 15.5412 4.15909C16.3873 4.62171 17.1962 5.14935 17.9607 5.73725C19.6037 6.99796 21.074 8.4691 22.3341 10.1129C22.9199 10.8769 23.4462 11.6847 23.9084 12.5293L23.9114 12.5353ZM22.5811 18.4013C22.6034 18.4608 22.6257 18.5219 22.6466 18.5814C22.4407 18.5546 22.2366 18.5163 22.035 18.4668C21.5568 18.3459 21.0894 18.1856 20.6377 17.9874C20.1794 17.787 19.7324 17.5618 19.2985 17.3129C18.4178 16.8042 17.5767 16.2299 16.7822 15.5948C15.9833 14.962 15.2221 14.2829 14.5025 13.5611C13.7815 12.8422 13.1028 12.0821 12.4698 11.2846C11.8388 10.4911 11.2678 9.65153 10.7615 8.77298C10.5125 8.33902 10.2875 7.8917 10.0875 7.43303C9.88759 6.97979 9.72583 6.51068 9.60385 6.03055C9.55432 5.82887 9.51607 5.62458 9.48927 5.41864L9.66932 5.48415C10.2492 5.70198 10.8157 5.95403 11.3657 6.23899C12.4713 6.81888 13.5257 7.49177 14.5174 8.2504C15.5151 9.00818 16.4597 9.83344 17.3447 10.7204C18.2312 11.6062 19.0565 12.5513 19.8148 13.5492C20.5726 14.5414 21.2446 15.5963 21.8237 16.7025C22.1081 17.2515 22.36 17.8168 22.5781 18.3953L22.5811 18.4013ZM5.12483 10.4003C5.36887 10.4479 5.6129 10.509 5.85397 10.5804C6.09503 10.6519 6.33461 10.7293 6.57121 10.8261C7.0488 11.0098 7.51491 11.2221 7.967 11.4618C8.87626 11.9464 9.74379 12.5057 10.5607 13.1338C11.3815 13.7632 12.1599 14.4461 12.8909 15.1779C13.6224 15.9094 14.305 16.6882 14.934 17.5095C15.5592 18.327 16.1157 19.195 16.5977 20.1045C16.8372 20.5563 17.0494 21.0222 17.2331 21.4995C17.3253 21.7368 17.4072 21.976 17.4786 22.2172C17.55 22.4598 17.611 22.7025 17.6586 22.9467C17.6884 23.0956 17.7107 23.2444 17.7271 23.3933L17.5322 23.3159C16.9688 23.0826 16.4193 22.8172 15.8864 22.5209C14.8124 21.9194 13.787 21.2349 12.8195 20.4737C11.8472 19.7111 10.9224 18.8898 10.0503 18.0142C9.17525 17.1414 8.35478 16.2156 7.5935 15.242C6.8341 14.2729 6.15149 13.2459 5.55189 12.1705C5.25604 11.6402 4.99073 11.0934 4.75728 10.5328C4.73049 10.4673 4.7052 10.4033 4.6799 10.3377C4.82722 10.3482 4.97751 10.372 5.12483 10.4003ZM11.6276 24.5516C10.8462 24.0848 10.097 23.566 9.3851 22.9988C8.58618 22.366 7.82498 21.6869 7.10542 20.965C6.38435 20.2452 5.70566 19.4841 5.07274 18.6856C4.50613 17.9726 3.98763 17.2225 3.52071 16.4405C3.66952 16.4851 3.81832 16.5343 3.96712 16.5894C4.30342 16.7155 4.63187 16.8617 4.95072 17.0271C5.59518 17.3632 6.20953 17.7543 6.78697 18.1958C7.36977 18.6374 7.92118 19.1189 8.43722 19.637C8.95446 20.1529 9.43526 20.7041 9.87616 21.2866C10.3175 21.8644 10.7083 22.4791 11.0443 23.1239C11.2102 23.4426 11.3563 23.7712 11.4818 24.108C11.5383 24.2554 11.583 24.4028 11.6276 24.5516ZM11.7987 26.1119C11.7865 26.1872 11.7701 26.2618 11.7496 26.3353C11.7293 26.4042 11.7034 26.4714 11.6722 26.5363C11.6652 26.5526 11.6572 26.5685 11.6484 26.5839L11.6246 26.6286C11.6053 26.6569 11.5889 26.6851 11.5681 26.7119C11.5299 26.7657 11.4865 26.8156 11.4386 26.8608C11.3925 26.9029 11.3427 26.9408 11.2898 26.974C11.2615 26.9918 11.2318 27.0067 11.2035 27.0216L11.1574 27.041C11.1418 27.0478 11.126 27.0538 11.1098 27.0588C11.0451 27.0835 10.9783 27.1024 10.9104 27.1154C10.838 27.1293 10.765 27.1392 10.6916 27.1452C10.6153 27.1497 10.5388 27.1497 10.4625 27.1452H10.4342H10.4044H10.3449C10.3062 27.1452 10.266 27.1452 10.2259 27.1333C10.0634 27.1128 9.90244 27.0825 9.74372 27.0425C9.41358 26.9558 9.09108 26.8423 8.77947 26.703C8.45989 26.5606 8.14796 26.4016 7.84498 26.2266C7.23214 25.8678 6.64627 25.4647 6.09206 25.0206C4.96978 24.1262 3.95152 23.1084 3.05644 21.9864C2.61224 21.4321 2.20938 20.8459 1.85112 20.2325C1.67563 19.9297 1.51667 19.6176 1.37495 19.2975C1.23572 18.9858 1.12224 18.6631 1.03567 18.3328C0.995655 18.174 0.965342 18.0129 0.944901 17.8504C0.944901 17.8102 0.937461 17.77 0.932997 17.7313V17.6717V17.642V17.6137C0.932997 17.5348 0.932997 17.4648 0.932997 17.3844C0.938959 17.311 0.948894 17.2379 0.962758 17.1655C0.975973 17.0976 0.994888 17.0308 1.0193 16.966C1.02435 16.9498 1.03031 16.9339 1.03716 16.9184L1.0565 16.8722C1.07139 16.844 1.08627 16.8142 1.10412 16.7859C1.13736 16.733 1.1752 16.6832 1.21721 16.637C1.26244 16.5886 1.31227 16.5447 1.36602 16.506C1.3928 16.4851 1.42108 16.4688 1.44935 16.4509L1.49399 16.4256C1.5094 16.4168 1.5253 16.4088 1.54161 16.4018C1.60615 16.3705 1.67338 16.345 1.74249 16.3258C1.81556 16.3039 1.89017 16.2875 1.9657 16.2767C2.03266 16.2663 2.10111 16.2588 2.16956 16.2544C2.24397 16.4033 2.31837 16.5521 2.40021 16.71C2.90497 17.6589 3.48834 18.5638 4.1442 19.4152C4.79466 20.2639 5.50001 21.0691 6.25574 21.8256C7.00979 22.5803 7.81312 23.2841 8.66043 23.9323C9.51183 24.5878 10.4162 25.1715 11.3642 25.6772C11.513 25.7576 11.6618 25.8335 11.8195 25.908C11.8151 25.9779 11.8076 26.0449 11.7987 26.1119ZM17.6661 24.7229C17.6372 24.8289 17.5999 24.9325 17.5545 25.0325C17.5426 25.0564 17.5322 25.0817 17.5203 25.1055L17.4816 25.1755L17.4414 25.2425L17.431 25.2603L17.4206 25.2752L17.3982 25.308C17.3381 25.3919 17.2703 25.4702 17.1959 25.5417C17.1207 25.6111 17.039 25.6729 16.9518 25.7263L16.9191 25.7472L16.9027 25.7561L16.8864 25.765L16.8179 25.8023L16.7465 25.835L16.6736 25.8648C16.5734 25.9031 16.4704 25.9334 16.3655 25.9556C16.2565 25.9785 16.1462 25.9944 16.0352 26.0033H15.9504H15.8656H15.6498H15.6051H15.5188C15.4593 26.0033 15.4013 25.9943 15.3418 25.9869C15.1036 25.9604 14.8675 25.9181 14.6349 25.8603C14.157 25.7393 13.6896 25.5795 13.2377 25.3824C12.9668 25.2648 12.6975 25.1368 12.4341 24.9983C12.4348 24.9919 12.4348 24.9854 12.4341 24.9789C12.3388 24.6015 12.2113 24.2329 12.0532 23.8772C11.9003 23.5281 11.7285 23.1876 11.5383 22.8573C11.1588 22.2048 10.7316 21.5813 10.2601 20.9918C9.79075 20.405 9.28794 19.8457 8.75417 19.3169C8.22313 18.7851 7.66222 18.2841 7.07417 17.8162C6.4853 17.3441 5.86206 16.9166 5.20964 16.5373C4.8791 16.3464 4.53832 16.174 4.18884 16.0206C3.83333 15.8624 3.46493 15.7349 3.08769 15.6395H3.06834C2.93144 15.376 2.80198 15.108 2.68592 14.8355C2.4878 14.3836 2.32753 13.916 2.20677 13.4375C2.14879 13.2049 2.10653 12.9686 2.08028 12.7303C2.08028 12.6707 2.06986 12.6127 2.06391 12.5546V12.4668V12.2003C2.06243 12.172 2.06243 12.1437 2.06391 12.1154C2.06391 12.0871 2.06391 12.0588 2.06391 12.0306C2.0729 11.9195 2.08881 11.8091 2.11153 11.7C2.13409 11.5952 2.16444 11.4922 2.2023 11.3918C2.21272 11.368 2.22165 11.3427 2.23206 11.3189L2.2648 11.2474L2.302 11.1789L2.31093 11.1626L2.31986 11.1462L2.34069 11.1134C2.3941 11.0262 2.4559 10.9444 2.52521 10.8693C2.59637 10.7948 2.67462 10.7275 2.75883 10.6683L2.79157 10.6459L2.80794 10.634L2.8243 10.6236L2.89127 10.5834L2.96121 10.5447L3.03412 10.5105C3.13779 10.4652 3.24474 10.4279 3.35405 10.3988C3.43143 10.3779 3.51029 10.3616 3.59065 10.3467C3.65166 10.5358 3.71713 10.7234 3.78558 10.908C4.01525 11.5188 4.28109 12.1154 4.58169 12.6946C5.18252 13.8432 5.87943 14.9389 6.66495 15.97C7.44446 16.9923 8.29157 17.9613 9.20059 18.8703C10.1107 19.7823 11.0816 20.6314 12.1067 21.4117C13.1368 22.1983 14.232 22.8956 15.3804 23.4961C15.9593 23.7969 16.5556 24.0628 17.1661 24.2926C17.3506 24.3611 17.5381 24.4266 17.7271 24.4876C17.7048 24.5665 17.6869 24.6454 17.6661 24.7229V24.7229ZM23.1719 21.0529C23.1719 21.2018 23.1719 21.3506 23.1719 21.4995C23.1719 21.5725 23.1629 21.6484 23.157 21.7169C23.157 21.7526 23.1481 21.7884 23.1451 21.8241L23.1376 21.8777L23.1287 21.9313C23.1085 22.0713 23.0782 22.2096 23.0379 22.3452C22.9989 22.4776 22.9492 22.6065 22.8891 22.7308C22.7775 22.9726 22.6221 23.1917 22.4308 23.377C22.2386 23.5575 22.0146 23.7009 21.7701 23.7998C21.6452 23.8517 21.5163 23.8935 21.3847 23.9248C21.2501 23.9574 21.1133 23.9808 20.9755 23.9948H20.9234H20.8713H20.7657C20.6943 23.9948 20.6243 24.0023 20.5514 23.9948C20.4026 23.9948 20.2642 23.9948 20.1199 23.9784C19.8272 23.9519 19.5365 23.9071 19.2494 23.8444C18.989 23.7879 18.73 23.7164 18.4726 23.636V23.5988C18.4407 23.3239 18.391 23.0514 18.3238 22.7829C18.1933 22.2576 18.0191 21.7441 17.803 21.2479C17.5914 20.7584 17.3524 20.2813 17.0872 19.8186C16.5589 18.901 15.9619 18.0245 15.3016 17.1968C14.6477 16.3704 13.9462 15.5829 13.2005 14.8385C12.4559 14.0923 11.6684 13.3904 10.8419 12.7363C10.0173 12.0858 9.14482 11.4985 8.23187 10.9794C7.76933 10.7144 7.29242 10.4753 6.80334 10.2633C6.30738 10.0471 5.79419 9.87278 5.26917 9.74221C5.00088 9.67486 4.72848 9.62513 4.45372 9.59333H4.41652C4.33616 9.33626 4.26672 9.0772 4.20819 8.81616C4.14553 8.5289 4.1008 8.23801 4.07426 7.94519C4.06385 7.79631 4.05641 7.65636 4.0579 7.51343C4.0579 7.44048 4.0579 7.36455 4.0579 7.29904C4.0579 7.2633 4.0579 7.22906 4.0579 7.19333V7.14122V7.08911C4.07189 6.9512 4.09526 6.81441 4.12783 6.67968C4.15913 6.54801 4.20093 6.41906 4.25283 6.29407C4.35653 6.04651 4.50596 5.82073 4.69329 5.62857C4.88047 5.43762 5.10147 5.28314 5.34506 5.17298C5.47069 5.1127 5.60109 5.0629 5.73493 5.0241C5.87062 4.98456 6.00883 4.95422 6.1486 4.93328L6.20217 4.92435H6.25574C6.29145 4.92435 6.32717 4.91393 6.36288 4.91095C6.4358 4.91095 6.51169 4.89755 6.58014 4.89606C6.72894 4.88713 6.87775 4.89606 7.02655 4.89606C7.32598 4.91024 7.6242 4.94356 7.91938 4.99581C8.12622 5.03303 8.33306 5.07919 8.53989 5.1313V5.19234C8.53989 5.2638 8.53989 5.34122 8.54882 5.40673C8.56667 5.6887 8.60296 5.9692 8.65745 6.24643C8.713 6.52038 8.77997 6.78936 8.85834 7.05338C8.93671 7.3174 9.02549 7.57646 9.1247 7.83055C9.32214 8.3363 9.5482 8.8304 9.80176 9.31045C10.3048 10.2563 10.8857 11.1587 11.5383 12.0082C12.1888 12.857 12.8941 13.6622 13.6498 14.4186C14.4051 15.1756 15.21 15.8814 16.059 16.5313C16.91 17.1863 17.8139 17.7694 18.7613 18.2747C19.2405 18.5296 19.7344 18.7558 20.2404 18.9521C20.4954 19.0514 20.7543 19.1402 21.0172 19.2186C21.282 19.2975 21.5499 19.3675 21.8237 19.4196C22.1008 19.4742 22.3811 19.5105 22.6629 19.5283C22.7329 19.5283 22.8118 19.5283 22.8772 19.5372H22.9382C22.9903 19.7442 23.0364 19.9511 23.0736 20.1581C23.1259 20.4539 23.1592 20.7528 23.1733 21.0529H23.1719ZM24.8801 14.8162C24.9516 15.0573 25.0126 15.3015 25.0602 15.5457C25.1076 15.7865 25.1384 16.0302 25.1525 16.2752C25.1525 16.3363 25.1524 16.3973 25.1599 16.4569V16.637V16.7263L25.1525 16.8142C25.1525 16.844 25.1525 16.8737 25.145 16.902C25.1376 16.9303 25.145 16.9601 25.1346 16.9884C25.1181 17.1012 25.0952 17.2131 25.0661 17.3234C25.0373 17.4294 24.9999 17.5329 24.9545 17.633C24.9426 17.6569 24.9322 17.6822 24.9203 17.706L24.8816 17.776L24.8414 17.843L24.831 17.8608L24.8206 17.8757L24.7983 17.9085C24.7381 17.9924 24.6704 18.0707 24.5959 18.1422C24.521 18.2112 24.4398 18.273 24.3534 18.3268L24.3191 18.3477L24.3028 18.3566L24.2864 18.3655L24.218 18.4028L24.1465 18.4355L24.0736 18.4653C23.9735 18.5036 23.8705 18.5339 23.7656 18.5561C23.6566 18.579 23.5463 18.5949 23.4352 18.6038H23.3504H23.3222C23.2686 18.4559 23.212 18.31 23.1525 18.166C22.9072 17.5718 22.628 16.9922 22.3162 16.4301C21.6953 15.3145 20.9868 14.2501 20.1973 13.2469C19.4132 12.2447 18.5684 11.2915 17.6676 10.3928C16.7697 9.49119 15.817 8.64591 14.815 7.86182C13.8112 7.07486 12.747 6.36845 11.6321 5.74916C11.0716 5.43738 10.4938 5.15802 9.90146 4.91244C9.75761 4.85288 9.61178 4.79631 9.46397 4.74271C9.46397 4.73378 9.46397 4.72335 9.46397 4.71442C9.46397 4.70549 9.46397 4.65785 9.46397 4.62956C9.47285 4.51849 9.48875 4.40809 9.51159 4.29904C9.53443 4.1941 9.56528 4.09107 9.60385 3.99085C9.61426 3.96703 9.62319 3.94172 9.63361 3.9179L9.66635 3.84643L9.70355 3.77795L9.71248 3.76157L9.7214 3.74519L9.74224 3.71244C9.8492 3.53619 9.99159 3.38409 10.1604 3.26579L10.1931 3.24345L10.2095 3.23154L10.2259 3.22112L10.2928 3.18092L10.3628 3.14221L10.4357 3.10797C10.5357 3.06256 10.6392 3.02522 10.7452 2.99631C10.8553 2.96698 10.9671 2.94461 11.08 2.92931C11.1086 2.92437 11.1374 2.92089 11.1663 2.91889C11.1954 2.91444 11.2247 2.91146 11.2541 2.90995H11.3419H11.4312H11.6097C11.6707 2.90995 11.7303 2.90995 11.7913 2.9174C12.0362 2.93137 12.2798 2.96221 12.5204 3.00971C12.7645 3.05735 13.0085 3.11839 13.2496 3.18986C13.4906 3.26132 13.7302 3.33874 13.9683 3.43551C14.126 3.49656 14.2838 3.56058 14.44 3.62906C14.4522 3.79192 14.4736 3.95396 14.504 4.11442C14.5412 4.31393 14.5888 4.51045 14.6439 4.70995C14.6989 4.90946 14.7614 5.08961 14.8314 5.27422C14.9693 5.63971 15.1288 5.99667 15.309 6.34321C15.6665 7.02747 16.0817 7.67996 16.5501 8.29358C17.014 8.90274 17.5181 9.4802 18.0589 10.0221C18.6004 10.5641 19.1781 11.0685 19.788 11.5318C20.4008 12.0004 21.0525 12.4158 21.7359 12.7735C22.0826 12.9541 22.4399 13.1137 22.8058 13.2514C22.9888 13.3214 23.1778 13.3839 23.3698 13.439C23.5617 13.4941 23.7567 13.5417 23.9561 13.5789C24.1165 13.6091 24.2784 13.631 24.4412 13.6444C24.5096 13.7933 24.5736 13.9571 24.6346 14.1164C24.7328 14.3417 24.8152 14.575 24.8816 14.8162H24.8801ZM24.2998 6.8509C24.7415 7.42893 25.1323 8.04413 25.4679 8.68961C25.6331 9.00866 25.7792 9.33729 25.9054 9.67373C26.0305 10.0005 26.1262 10.3378 26.1911 10.6817C26.2227 10.8488 26.2421 11.0179 26.2491 11.1879C26.2491 11.2296 26.2491 11.2698 26.2491 11.3114V11.4335C26.2459 11.5133 26.2379 11.5929 26.2253 11.6717C26.2139 11.7467 26.1975 11.8208 26.1762 11.8936C26.1561 11.9629 26.1307 12.0306 26.1003 12.0961C26.0914 12.1109 26.0855 12.1273 26.0765 12.1422L26.0512 12.1869C26.0334 12.2152 26.0155 12.2449 25.9962 12.2703C25.9574 12.324 25.9136 12.3738 25.8652 12.4191C25.8173 12.4628 25.765 12.5012 25.709 12.5338C25.6822 12.5502 25.6524 12.565 25.6227 12.5799L25.578 12.6008L25.526 12.6172C25.4605 12.6409 25.3933 12.6598 25.3251 12.6737C25.2533 12.6878 25.1808 12.6973 25.1078 12.702C25.0334 12.702 24.959 12.7095 24.8786 12.702H24.8206H24.7611C24.7209 12.702 24.6822 12.702 24.6421 12.6901H24.6331C24.587 12.6052 24.5409 12.5204 24.4932 12.437C23.9649 11.5193 23.3679 10.6429 22.7076 9.81517C22.0571 8.98866 21.3585 8.20119 20.6154 7.45685C19.8685 6.71046 19.0784 6.00851 18.2494 5.35462C17.4225 4.69345 16.5465 4.09619 15.629 3.56802C15.5456 3.52038 15.4608 3.47422 15.376 3.42807C15.376 3.42807 15.376 3.41616 15.376 3.4102C15.376 3.37 15.376 3.3313 15.3641 3.2911V3.23303V3.17348C15.3596 3.09712 15.3596 3.02056 15.3641 2.9442C15.3688 2.87121 15.3783 2.7986 15.3924 2.72683C15.407 2.65871 15.4258 2.59158 15.4489 2.52584C15.4489 2.51095 15.4608 2.49457 15.4682 2.47968L15.4876 2.43353C15.5025 2.40375 15.5173 2.37397 15.5337 2.34718C15.5672 2.29408 15.6055 2.24423 15.6483 2.19829C15.6936 2.14992 15.7434 2.10604 15.7971 2.06728C15.8224 2.04792 15.8522 2.03005 15.8804 2.01219L15.9251 1.98688L15.9712 1.96306C16.0369 1.93329 16.1045 1.90792 16.1736 1.88713C16.2464 1.86604 16.3204 1.84962 16.3953 1.83799C16.4741 1.82542 16.5536 1.81746 16.6334 1.81417H16.7465C16.7881 1.81417 16.8283 1.81417 16.87 1.81417C17.0398 1.82194 17.2088 1.84134 17.3759 1.87224C17.7216 1.93638 18.0607 2.03156 18.3893 2.15661C18.7255 2.28284 19.054 2.429 19.3729 2.59432C20.0173 2.93026 20.6321 3.32024 21.2106 3.76008C22.3745 4.6467 23.4136 5.68635 24.2998 6.8509V6.8509Z" fill="white"/>
</g>
<defs>
<clipPath id="clip0_114_668">
<rect width="85.7516" height="21.8537" fill="white" transform="translate(32.2484 5.37939)"/>
</clipPath>
<clipPath id="clip1_114_668">
<rect width="26.9857" height="27" fill="white" transform="translate(0 1.07568)"/>
</clipPath>
</defs>
</svg>
